<?xml version="1.0" encoding="UTF-8" standalone="no"?>
<!-- Created with Inkscape (http://www.inkscape.org/) -->

<svg
   width="211.38847mm"
   height="209.80824mm"
   viewBox="0 0 211.38847 209.80824"
   version="1.1"
   id="svg1"
   xml:space="preserve"
   inkscape:version="1.3.2 (091e20e, 2023-11-25)"
   sodipodi:docname="milkcrateLogo.svg"
   xmlns:inkscape="http://www.inkscape.org/namespaces/inkscape"
   xmlns:sodipodi="http://sodipodi.sourceforge.net/DTD/sodipodi-0.dtd"
   xmlns="http://www.w3.org/2000/svg"
   xmlns:svg="http://www.w3.org/2000/svg"><sodipodi:namedview
     id="namedview1"
     pagecolor="#ffffff"
     bordercolor="#000000"
     borderopacity="0.25"
     inkscape:showpageshadow="2"
     inkscape:pageopacity="0.0"
     inkscape:pagecheckerboard="0"
     inkscape:deskcolor="#d1d1d1"
     inkscape:document-units="mm"
     inkscape:zoom="0.6935896"
     inkscape:cx="546.43265"
     inkscape:cy="433.97421"
     inkscape:window-width="1920"
     inkscape:window-height="1027"
     inkscape:window-x="0"
     inkscape:window-y="25"
     inkscape:window-maximized="0"
     inkscape:current-layer="layer1" /><defs
     id="defs1" /><g
     inkscape:label="Layer 1"
     inkscape:groupmode="layer"
     id="layer1"
     transform="translate(0.14117253,-32.424915)"><rect
       style="opacity:0.993213;fill:#ffffff;fill-opacity:1;stroke-width:0.222318"
       id="rect1"
       width="210.18974"
       height="209.80824"
       x="0.38146958"
       y="32.424915" /><path
       style="fill:#000000;fill-opacity:1;stroke-width:2.92787"
       d="M 101.27703,238.31582 C 64.938676,227.45127 2.9081402,204.04521 1.5920034,200.70154 -1.9284448,191.75776 0.42597974,67.187544 4.0948857,68.276435 c 1.9643201,0.58298 12.0302903,3.460664 22.3688173,6.394875 10.338532,2.934214 27.932824,8.028439 39.098429,11.320477 46.082478,13.586873 36.075898,13.333908 74.437388,1.881704 14.90626,-4.450038 20.59461,-6.091926 43.23386,-12.479049 5.16925,-1.458389 13.21074,-3.754808 17.86999,-5.103122 4.65925,-1.348346 8.80404,-2.451533 9.21071,-2.451533 1.64843,0 0.93035,130.950563 -0.73401,133.848053 -1.92274,3.34731 -3.38476,4.07422 -18.07586,8.98726 -6.82342,2.28194 -23.9102,8.10223 -37.9706,12.93406 -49.86933,17.13742 -46.91106,16.30485 -52.25658,14.70666 z m 6.7406,-9.20072 c 1.43154,-2.83936 1.04235,-124.16692 -0.40319,-125.70139 -1.58383,-1.68121 -2.27567,-1.58309 -3.66315,0.51964 -1.78896,2.71123 -1.7783,123.57191 0.0106,125.47136 1.59078,1.68857 3.11267,1.57993 4.05525,-0.28961 z M 86.638144,207.236 c 0.607665,-0.92095 1.104828,-3.33716 1.104828,-5.36944 0,-9.45521 -10.021858,-15.21056 -12.485529,-7.17021 -2.701991,8.81812 6.874111,19.36937 11.380701,12.53965 z m 46.361806,-0.32154 c 5.64748,-6.42743 4.82128,-16.16221 -1.37171,-16.16221 -6.48351,0 -10.96028,11.69654 -6.49143,16.96033 1.83409,2.16037 5.59947,1.77818 7.86314,-0.79812 z m -66.319848,-5.61749 c 2.313076,-1.9882 2.280547,-8.6401 -0.06185,-12.66341 -5.175306,-8.88876 -14.429171,-3.38263 -10.882541,6.47521 2.323746,6.45885 7.333878,9.29167 10.944471,6.1882 z m 85.263348,-0.23961 c 2.87146,-2.3976 4.22176,-5.66249 4.22176,-10.20765 0,-10.01528 -10.17901,-8.76323 -12.80142,1.57461 -2.02282,7.97413 3.14322,13.17235 8.57966,8.63304 z M 47.086188,193.43794 c 3.213859,-4.33701 1.19532,-12.39793 -3.858608,-15.40906 -4.738393,-2.82315 -9.104022,2.67614 -7.413827,9.33906 1.83741,7.2433 7.959934,10.54017 11.272435,6.07 z m 125.709122,-0.99563 c 5.13199,-5.44758 3.73231,-15.25844 -2.1768,-15.25844 -4.52267,0 -7.68625,4.58271 -7.68625,11.1342 0,7.5731 4.7449,9.55716 9.86305,4.12424 z M 26.828862,188.36385 c 2.17106,-1.23335 3.253942,-5.69097 2.297989,-9.45945 -2.600429,-10.25116 -12.813703,-11.13131 -12.813703,-1.10424 0,7.50551 5.743222,13.27495 10.515714,10.56369 z m 164.289108,-0.93826 c 4.10587,-3.42829 5.40507,-10.72135 2.58735,-14.52383 -3.0255,-4.08282 -8.59563,-1.69005 -10.88612,4.67636 -3.01478,8.37953 2.38417,14.78602 8.29877,9.84747 z M 86.367978,178.25735 c 1.721512,-1.65377 1.869948,-8.1181 0.26228,-11.41836 -4.637945,-9.52044 -14.341581,-5.77619 -11.728333,4.52547 1.655616,6.52664 7.924484,10.29518 11.466131,6.89289 z m 46.748932,-1.07275 c 5.79376,-5.3998 4.89562,-15.9633 -1.35724,-15.9633 -4.50324,0 -9.39181,8.08027 -8.17945,13.51965 1.17799,5.28511 5.34291,6.35231 9.53669,2.44365 z m -66.298173,-5.3122 c 1.721523,-1.65377 1.869987,-8.11812 0.262222,-11.4184 -2.433682,-4.99567 -7.870282,-7.21845 -10.324005,-4.22104 -5.83859,7.13228 3.617452,21.83016 10.061812,15.63944 z m 85.275973,0.006 c 5.45296,-3.79263 5.83891,-15.34101 0.55973,-16.74749 -4.78332,-1.27434 -8.57179,2.73404 -9.11134,9.64019 -0.58513,7.49023 3.32665,10.74137 8.55161,7.1073 z M 46.663414,165.15472 c 5.543263,-4.62847 -0.707176,-18.96102 -7.481806,-17.15611 -5.742763,1.52997 -4.715284,14.30476 1.408315,17.50977 3.151206,1.64928 3.713924,1.61651 6.073491,-0.35366 z m 125.743056,-0.34879 c 5.70754,-6.05852 4.82556,-16.35406 -1.40098,-16.35406 -4.75026,0 -8.07494,4.37209 -8.19609,10.77819 -0.1352,7.15867 5.19079,10.25315 9.59707,5.57587 z M 27.693219,158.26641 c 5.492345,-4.9883 -2.904587,-20.58238 -8.823856,-16.38694 -3.286956,2.32975 -3.462065,9.79431 -0.337181,14.37336 2.8303,4.14738 6.035845,4.85196 9.161037,2.01358 z m 164.256131,-0.65908 c 6.0296,-6.78643 2.89006,-18.89604 -3.98856,-15.38454 -7.1444,3.64714 -7.53844,18.20108 -0.49279,18.20108 1.29068,0 2.84921,-0.97954 4.48135,-2.81654 z M 86.239202,149.24915 c 1.086585,-1.15341 1.500359,-2.64807 1.491409,-5.38741 -0.03264,-10.01635 -9.121826,-15.70863 -12.6414,-7.91691 -3.378574,7.47958 6.044706,18.72358 11.149991,13.30432 z m 46.832948,-0.60621 c 7.09858,-6.81918 3.14341,-20.33745 -4.50248,-15.38877 -7.34359,4.75302 -6.65513,18.611 0.85401,17.19129 1.21351,-0.22958 2.8553,-1.04056 3.64847,-1.80252 z m -66.253413,-5.50348 c 1.592669,-1.53 1.910528,-8.05335 0.531264,-10.9031 -4.900196,-10.12447 -14.752297,-6.82465 -11.900864,3.986 1.794915,6.80504 7.728472,10.41492 11.3696,6.9171 z m 85.730443,-0.87399 c 5.7497,-6.54374 4.8796,-16.16219 -1.46206,-16.16219 -6.21859,0 -10.61394,11.73297 -6.35365,16.96035 1.76591,2.16676 5.5501,1.78031 7.81571,-0.79816 z M 47.539702,135.40383 c 2.667,-4.04183 0.112838,-12.85376 -4.397884,-15.17271 -7.309402,-3.75776 -10.934368,8.35257 -4.442471,14.84144 3.274471,3.27295 6.811829,3.40549 8.840355,0.33127 z m 123.952978,1.0047 c 6.03605,-5.03995 5.65852,-16.69029 -0.54087,-16.69029 -5.41333,0 -8.46858,5.04303 -8.09922,13.36872 0.19689,4.44078 5.06043,6.31048 8.64009,3.32157 z M 27.015611,130.11834 c 3.725659,-3.11084 3.099839,-10.27503 -1.306113,-14.95192 -4.629027,-4.9137 -9.39635,-2.50785 -9.39635,4.74192 0,8.47556 5.96478,14.16586 10.702463,10.21 z m 165.232379,-1.21269 c 4.98169,-5.45589 3.49859,-16.3706 -2.22443,-16.3706 -2.57614,0 -6.78209,4.76678 -7.59119,8.60342 -1.9534,9.26267 4.08627,14.0419 9.81562,7.76718 z M 73.799286,116.82823 c 4.596739,-1.87241 3.833622,-12.01492 -1.152707,-15.32044 -1.609075,-1.06669 -35.271181,-11.320293 -37.163964,-11.320293 -4.004376,0 -6.416805,8.745987 -3.64918,13.229693 1.794983,2.90796 2.801668,3.33936 20.570573,8.81551 15.946386,4.91444 19.001384,5.57063 21.395278,4.59553 z m 86.062634,-4.65004 c 20.36761,-6.23041 24.03278,-9.53283 20.28095,-18.27353 -2.01792,-4.701317 -1.23249,-4.803277 -30.74467,3.990915 -12.87542,3.836675 -16.16975,7.213575 -14.28509,14.643125 1.54293,6.0823 3.79411,6.04952 24.74881,-0.36051 z m -63.964684,-8.37772 c 0.543068,-4.084165 -6.182558,-5.89316 -7.122975,-1.91585 -0.629348,2.66175 1.366816,4.4384 4.607888,4.10117 1.742463,-0.18129 2.314708,-0.67851 2.515087,-2.18532 z m 25.305954,1.55117 c 1.57872,-0.63715 1.93048,-1.242 1.74068,-2.993 -0.42848,-3.952809 -7.38086,-3.111551 -7.38086,0.89311 0,3.05005 1.70914,3.68637 5.64018,2.09989 z M 13.90709,82.046541 c 2.651765,-2.814846 -1.954706,-7.878333 -4.8482331,-5.329245 -1.7946752,1.581044 -1.2268284,4.476192 1.0511731,5.35935 2.758342,1.069404 2.76129,1.069373 3.79706,-0.03015 z m 189.12714,-0.649496 c 0.34517,-0.331672 0.51433,-1.452566 0.37594,-2.490899 -0.42074,-3.156653 -6.17017,-2.786069 -6.51496,0.419966 -0.35832,3.332068 3.47929,4.626659 6.13902,2.070933 z M 83.287388,85.076711 C 72.359225,81.889227 63.731249,79.080503 64.114127,78.835105 64.496995,78.589559 68.178693,77.440849 72.295692,76.282158 84.219138,72.926348 88.796745,64.844911 82.53757,58.200804 78.070994,53.459518 44.07129,63.179977 42.872814,69.540857 42.216029,73.026769 41.853778,73.022065 29.052012,69.360768 10.76176,64.129983 7.6407246,63.200942 8.0423259,63.106796 8.573293,62.98221 37.590552,55.148523 74.335524,45.209604 c 31.330206,-8.474285 31.330206,-8.474285 60.903326,-0.504943 16.26524,4.383159 37.86276,10.174664 47.99453,12.870056 10.13174,2.695391 18.68443,5.147799 19.00595,5.449756 0.32149,0.301989 -6.95306,2.717804 -16.16571,5.368491 -14.36504,4.133148 -16.78304,4.635796 -16.98039,3.529775 -1.14819,-6.433762 -1.85989,-6.849777 -20.54127,-12.006807 -19.00775,-5.247133 -21.71056,-4.788523 -21.71056,3.68383 0,7.772151 2.3001,10.114334 12.73579,12.968938 9.05234,2.476177 9.29389,2.788423 3.37757,4.365967 -2.80722,0.748529 -11.88076,3.31617 -20.16337,5.705893 -18.41209,5.312261 -15.5388,5.426017 -39.504002,-1.563999 z"
       id="path1" /></g></svg>
